<svg id="Group_167" data-name="Group 167" xmlns="http://www.w3.org/2000/svg" xmlns:xlink="http://www.w3.org/1999/xlink" width="261.55" height="53" viewBox="0 0 261.55 53">
  <defs>
    <clipPath id="clip-path">
      <rect id="Rectangle_95" data-name="Rectangle 95" width="261.55" height="53" fill="none"/>
    </clipPath>
    <clipPath id="clip-path-2">
      <path id="Path_272" data-name="Path 272" d="M31.5,0a26.119,26.119,0,1,0,.354,0Z" transform="translate(-5.569)" fill="none"/>
    </clipPath>
    <radialGradient id="radial-gradient" cx="0.818" cy="0.532" r="0.556" gradientTransform="matrix(0, -1, -1, 0, 0.955, 0.955)" gradientUnits="objectBoundingBox">
      <stop offset="0" stop-color="#0073c2"/>
      <stop offset="0.686" stop-color="#003972"/>
      <stop offset="1" stop-color="#003972"/>
    </radialGradient>
    <clipPath id="clip-path-3">
      <path id="Path_273" data-name="Path 273" d="M2.256,59.608c2.715,5.282,8.053,7.608,14.526,7.632h.191a35.965,35.965,0,0,0,8.9-1.252,26.073,26.073,0,0,1-14.322-8c-4.626-1.169-7.479-3-7.553-4.323-2,3.6-1.738,5.945-1.738,5.945" transform="translate(-2.245 -53.663)" fill="none"/>
    </clipPath>
    <linearGradient id="linear-gradient" x1="-0.059" y1="1" x2="-0.028" y2="1" gradientUnits="objectBoundingBox">
      <stop offset="0" stop-color="#89000e"/>
      <stop offset="0.064" stop-color="#8f000e"/>
      <stop offset="0.156" stop-color="#a20010"/>
      <stop offset="0.263" stop-color="#c00014"/>
      <stop offset="0.334" stop-color="#d90017"/>
      <stop offset="0.855" stop-color="#bb0014"/>
      <stop offset="1" stop-color="#bb0014"/>
    </linearGradient>
    <clipPath id="clip-path-5">
      <path id="Path_275" data-name="Path 275" d="M23.826,15.673s-13.109,4.5-20.077,12.016C-.832,32.632-.292,40.088.616,44.616c.005.026.011.051.016.079a13.5,13.5,0,0,0,.879,3.4c.09.276.148.441.148.441s0-.023,0-.057l0,.011,0-.012A11.359,11.359,0,0,1,3.4,42.592a28.922,28.922,0,0,1,7.581-8.436c10.044-7.955,16.991-9.139,16.991-9.139l-.13,5.333L48,12.936,20.91,11.944Z" transform="translate(0 -11.944)" fill="none"/>
    </clipPath>
    <linearGradient id="linear-gradient-2" x1="0.017" y1="1.209" x2="0.032" y2="1.209" gradientUnits="objectBoundingBox">
      <stop offset="0" stop-color="#b10013"/>
      <stop offset="0.071" stop-color="#b60013"/>
      <stop offset="0.37" stop-color="#c90015"/>
      <stop offset="0.677" stop-color="#d50016"/>
      <stop offset="1" stop-color="#d90017"/>
    </linearGradient>
  </defs>
  <path id="Path_239" data-name="Path 239" d="M98.687,48.83H96.395v6.194H94.6V48.83H92.3V47.552h6.391Z" transform="translate(-24.493 -12.619)" fill="#d90017"/>
  <g id="Group_168" data-name="Group 168" transform="translate(0 0)">
    <g id="Group_167-2" data-name="Group 167" clip-path="url(#clip-path)">
      <path id="Path_240" data-name="Path 240" d="M109.06,55.024h-2.073l-1.957-2.936H104.2v2.936h-1.8V47.552h3.363a4.9,4.9,0,0,1,2.154.356,1.266,1.266,0,0,1,.679,1.22v1.314a1.233,1.233,0,0,1-.489,1.048,2.5,2.5,0,0,1-1.214.461Zm-2.223-4.938v-.53a.62.62,0,0,0-.248-.571,1.681,1.681,0,0,0-.846-.155H104.2V50.9h1.543a1.58,1.58,0,0,0,.863-.167.76.76,0,0,0,.23-.65" transform="translate(-27.175 -12.619)" fill="#d90017"/>
      <path id="Path_241" data-name="Path 241" d="M119.454,55.024h-1.819l-.669-1.969h-2.728l-.657,1.969h-1.773l2.763-7.472h2.188Zm-2.879-3.166-.944-2.809h-.046l-.944,2.809Z" transform="translate(-29.671 -12.619)" fill="#d90017"/>
      <path id="Path_242" data-name="Path 242" d="M130.379,55.024H128.56l-3.615-5.181v5.181h-1.6V47.552h1.819l3.615,5.1v-5.1h1.6Z" transform="translate(-32.732 -12.619)" fill="#d90017"/>
      <path id="Path_243" data-name="Path 243" d="M140.711,52.358v.5a2.38,2.38,0,0,1-.242,1.123,1.6,1.6,0,0,1-.713.69,3.743,3.743,0,0,1-1.031.334,7.728,7.728,0,0,1-1.33.1,20.974,20.974,0,0,1-2.648-.208V53.521a20.242,20.242,0,0,0,2.673.3q1.5,0,1.5-.771v-.482a.781.781,0,0,0-.2-.548,1.069,1.069,0,0,0-.783-.213h-.876q-2.464,0-2.464-1.957V49.3a1.542,1.542,0,0,1,.812-1.434A5.448,5.448,0,0,1,138,47.4q.865,0,2.337.151V48.88q-1.75-.206-2.394-.207a3.405,3.405,0,0,0-1.221.149.519.519,0,0,0-.334.508v.53c0,.392.329.588.991.588h.9a2.861,2.861,0,0,1,1.872.483,1.789,1.789,0,0,1,.558,1.428" transform="translate(-35.718 -12.578)" fill="#d90017"/>
      <path id="Path_244" data-name="Path 244" d="M150.565,49.267v1.416a1.565,1.565,0,0,1-.738,1.508,5.383,5.383,0,0,1-2.43.4h-.99v2.429h-1.8V47.551H147.6a5.344,5.344,0,0,1,2.275.351,1.388,1.388,0,0,1,.685,1.365m-1.739,1.359v-1.2a.468.468,0,0,0-.277-.478,2.907,2.907,0,0,0-1.024-.12h-1.117v2.532h1.14a2.1,2.1,0,0,0,.99-.167.6.6,0,0,0,.288-.569" transform="translate(-38.376 -12.619)" fill="#d90017"/>
      <path id="Path_245" data-name="Path 245" d="M161.312,49.664v3.27a1.764,1.764,0,0,1-.334,1.082,2.043,2.043,0,0,1-.9.674,5.442,5.442,0,0,1-1.128.317,7.572,7.572,0,0,1-1.2.092,7.833,7.833,0,0,1-1.123-.076,5.982,5.982,0,0,1-1.117-.282,1.97,1.97,0,0,1-.944-.668,1.817,1.817,0,0,1-.351-1.139v-3.27a1.978,1.978,0,0,1,.881-1.681,3.261,3.261,0,0,1,.881-.375,5.087,5.087,0,0,1,.92-.179c.269-.022.553-.035.852-.035s.6.012.87.035a5.093,5.093,0,0,1,.926.179,3.366,3.366,0,0,1,.887.375,1.866,1.866,0,0,1,.622.662,1.986,1.986,0,0,1,.253,1.019m-1.8,3.27V49.652a.778.778,0,0,0-.443-.76,3.071,3.071,0,0,0-1.307-.218,3.125,3.125,0,0,0-1.313.214.776.776,0,0,0-.437.765v3.282a.748.748,0,0,0,.149.478.808.808,0,0,0,.432.27,3.18,3.18,0,0,0,.541.109,7.144,7.144,0,0,0,1.278,0,3.017,3.017,0,0,0,.536-.109.722.722,0,0,0,.564-.748" transform="translate(-40.926 -12.578)" fill="#d90017"/>
      <path id="Path_246" data-name="Path 246" d="M172.5,55.024h-2.072l-1.958-2.936h-.829v2.936h-1.8V47.552h3.362a4.9,4.9,0,0,1,2.154.356,1.267,1.267,0,0,1,.679,1.22v1.314a1.232,1.232,0,0,1-.489,1.048,2.51,2.51,0,0,1-1.216.461Zm-2.222-4.938v-.53a.62.62,0,0,0-.248-.571,1.686,1.686,0,0,0-.847-.155h-1.542V50.9h1.542a1.577,1.577,0,0,0,.864-.167.759.759,0,0,0,.231-.65" transform="translate(-44.011 -12.619)" fill="#d90017"/>
      <path id="Path_247" data-name="Path 247" d="M181.926,48.83h-2.292v6.194h-1.8V48.83h-2.3V47.552h6.391Z" transform="translate(-46.582 -12.619)" fill="#d90017"/>
      <path id="Path_248" data-name="Path 248" d="M195.912,54.982h-1.059a1.024,1.024,0,0,1-.782-.242l-.082-.08a4.823,4.823,0,0,1-2.222.438,4.891,4.891,0,0,1-2.054-.364,1.2,1.2,0,0,1-.777-1.157V52.185q0-.91,1.5-1.383l-.345-.367a1.218,1.218,0,0,1-.357-.83V48.7a1.054,1.054,0,0,1,.58-.973,3.347,3.347,0,0,1,1.631-.328,11.789,11.789,0,0,1,1.911.2v1.139a8.461,8.461,0,0,0-1.842-.242q-.656,0-.655.356v.45a.563.563,0,0,0,.1.38l2.418,2.659V50.619h1.52v1.853a1.514,1.514,0,0,1-.414,1.082l.219.242a.287.287,0,0,0,.206.092h.507Zm-2.682-1.139-2.188-2.373c-.254.093-.381.239-.381.439v1.4a.56.56,0,0,0,.277.507,2.136,2.136,0,0,0,1.036.174,3.6,3.6,0,0,0,1.255-.151" transform="translate(-50.138 -12.578)" fill="#d90017"/>
      <path id="Path_249" data-name="Path 249" d="M208.6,55.024h-5.469V47.552h1.8v6.194H208.6Z" transform="translate(-53.906 -12.619)" fill="#d90017"/>
      <path id="Path_250" data-name="Path 250" d="M219.1,49.664v3.27a1.755,1.755,0,0,1-.334,1.082,2.039,2.039,0,0,1-.9.674,5.454,5.454,0,0,1-1.128.317,7.565,7.565,0,0,1-1.2.092,7.843,7.843,0,0,1-1.123-.076,5.961,5.961,0,0,1-1.116-.282,1.968,1.968,0,0,1-.945-.668,1.826,1.826,0,0,1-.351-1.139v-3.27a1.983,1.983,0,0,1,.881-1.681,3.3,3.3,0,0,1,.88-.375,5.105,5.105,0,0,1,.921-.179c.269-.022.553-.035.853-.035s.6.012.868.035a5.083,5.083,0,0,1,.928.179,3.392,3.392,0,0,1,.886.375,1.874,1.874,0,0,1,.622.662,1.978,1.978,0,0,1,.253,1.019m-1.8,3.27V49.652a.779.779,0,0,0-.442-.76,3.077,3.077,0,0,0-1.308-.218,3.121,3.121,0,0,0-1.312.214.775.775,0,0,0-.437.765v3.282a.748.748,0,0,0,.149.478.805.805,0,0,0,.432.27,3.138,3.138,0,0,0,.541.109,7.143,7.143,0,0,0,1.278,0,3.03,3.03,0,0,0,.536-.109.773.773,0,0,0,.419-.27.763.763,0,0,0,.144-.478" transform="translate(-56.26 -12.578)" fill="#d90017"/>
      <path id="Path_251" data-name="Path 251" d="M230.244,54.614a8.117,8.117,0,0,1-1.467.347,10.835,10.835,0,0,1-1.641.138,11,11,0,0,1-1.123-.052,5.9,5.9,0,0,1-1-.2,2.958,2.958,0,0,1-.84-.374,1.686,1.686,0,0,1-.547-.621,1.951,1.951,0,0,1-.206-.922V49.825a2.156,2.156,0,0,1,.242-1.037,1.952,1.952,0,0,1,.61-.7,3.368,3.368,0,0,1,.887-.42,4.992,4.992,0,0,1,1-.219,9.145,9.145,0,0,1,1.007-.052,18.419,18.419,0,0,1,3.039.242V49a13.307,13.307,0,0,0-3.039-.323q-1.947,0-1.946,1.128v3a.794.794,0,0,0,.547.794,4.355,4.355,0,0,0,1.56.219,4.66,4.66,0,0,0,1.211-.173V51.909h-1.222V50.736h2.936Z" transform="translate(-59.288 -12.578)" fill="#d90017"/>
      <rect id="Rectangle_90" data-name="Rectangle 90" width="1.795" height="7.472" transform="translate(172.407 34.933)" fill="#d90017"/>
      <path id="Path_252" data-name="Path 252" d="M244.92,52.358v.5a2.38,2.38,0,0,1-.242,1.123,1.6,1.6,0,0,1-.714.69,3.728,3.728,0,0,1-1.031.334,7.713,7.713,0,0,1-1.33.1,20.964,20.964,0,0,1-2.648-.208V53.521a20.252,20.252,0,0,0,2.671.3q1.5,0,1.5-.771v-.482a.782.782,0,0,0-.2-.548,1.068,1.068,0,0,0-.782-.213h-.876q-2.465,0-2.463-1.957V49.3a1.541,1.541,0,0,1,.811-1.434,5.445,5.445,0,0,1,2.6-.466q.862,0,2.336.151V48.88q-1.75-.206-2.395-.207a3.406,3.406,0,0,0-1.22.149.518.518,0,0,0-.334.508v.53q0,.587.992.588h.9a2.859,2.859,0,0,1,1.871.483,1.785,1.785,0,0,1,.558,1.428" transform="translate(-63.373 -12.578)" fill="#d90017"/>
      <path id="Path_253" data-name="Path 253" d="M253.644,48.83h-2.291v6.194h-1.8V48.83h-2.3V47.552h6.388Z" transform="translate(-65.615 -12.619)" fill="#d90017"/>
      <rect id="Rectangle_91" data-name="Rectangle 91" width="1.795" height="7.472" transform="translate(189.066 34.933)" fill="#d90017"/>
      <path id="Path_254" data-name="Path 254" d="M267.666,54.845a12.407,12.407,0,0,1-2.419.253c-.306,0-.6-.015-.868-.041a6.038,6.038,0,0,1-.909-.173,2.95,2.95,0,0,1-.852-.357,1.859,1.859,0,0,1-.835-1.594V49.652q0-2.257,3.465-2.257a15.434,15.434,0,0,1,2.374.253V49a10.55,10.55,0,0,0-2.349-.323c-.262,0-.475.008-.64.023a2.235,2.235,0,0,0-.517.115.746.746,0,0,0-.4.293.934.934,0,0,0-.132.525v3.177q0,1.015,1.853,1.013a10.419,10.419,0,0,0,2.234-.334Z" transform="translate(-69.469 -12.578)" fill="#d90017"/>
      <path id="Path_255" data-name="Path 255" d="M276.956,52.358v.5a2.381,2.381,0,0,1-.242,1.123,1.6,1.6,0,0,1-.714.69,3.725,3.725,0,0,1-1.031.334,7.7,7.7,0,0,1-1.329.1,20.964,20.964,0,0,1-2.648-.208V53.521a20.252,20.252,0,0,0,2.671.3q1.5,0,1.5-.771v-.482a.781.781,0,0,0-.2-.548,1.068,1.068,0,0,0-.782-.213h-.876q-2.465,0-2.463-1.957V49.3a1.541,1.541,0,0,1,.811-1.434,5.445,5.445,0,0,1,2.6-.466q.862,0,2.336.151V48.88q-1.75-.206-2.395-.207a3.406,3.406,0,0,0-1.22.149.518.518,0,0,0-.334.508v.53q0,.587.991.588h.9a2.86,2.86,0,0,1,1.871.483,1.787,1.787,0,0,1,.558,1.428" transform="translate(-71.874 -12.578)" fill="#d90017"/>
      <path id="Path_256" data-name="Path 256" d="M290.058,52.358v.5a2.38,2.38,0,0,1-.241,1.123,1.6,1.6,0,0,1-.715.69,3.727,3.727,0,0,1-1.031.334,7.713,7.713,0,0,1-1.33.1,20.974,20.974,0,0,1-2.648-.208V53.521a20.251,20.251,0,0,0,2.671.3q1.5,0,1.5-.771v-.482a.781.781,0,0,0-.2-.548,1.069,1.069,0,0,0-.783-.213h-.875q-2.465,0-2.464-1.957V49.3a1.542,1.542,0,0,1,.812-1.434,5.445,5.445,0,0,1,2.6-.466q.862,0,2.336.151V48.88q-1.75-.206-2.395-.207a3.406,3.406,0,0,0-1.22.149.518.518,0,0,0-.334.508v.53q0,.587.991.588h.9a2.857,2.857,0,0,1,1.871.483,1.787,1.787,0,0,1,.558,1.428" transform="translate(-75.351 -12.578)" fill="#d90017"/>
      <path id="Path_257" data-name="Path 257" d="M299.773,55.024h-5.814V47.552h5.7v1.278h-3.9v1.715h3.524v1.279h-3.524v1.923h4.018Z" transform="translate(-78.008 -12.619)" fill="#d90017"/>
      <path id="Path_258" data-name="Path 258" d="M310.173,55.024H308.1l-1.958-2.936h-.829v2.936h-1.8V47.552h3.362a4.892,4.892,0,0,1,2.153.356,1.266,1.266,0,0,1,.679,1.22v1.314a1.231,1.231,0,0,1-.489,1.048,2.5,2.5,0,0,1-1.215.461Zm-2.222-4.938v-.53a.621.621,0,0,0-.248-.571,1.684,1.684,0,0,0-.847-.155h-1.542V50.9h1.542a1.573,1.573,0,0,0,.863-.167.759.759,0,0,0,.231-.65" transform="translate(-80.545 -12.619)" fill="#d90017"/>
      <path id="Path_259" data-name="Path 259" d="M320.536,47.552l-2.764,7.472h-2.2l-2.682-7.472h1.819l2,5.975h.046l2-5.975Z" transform="translate(-83.033 -12.619)" fill="#d90017"/>
      <rect id="Rectangle_92" data-name="Rectangle 92" width="1.795" height="7.472" transform="translate(238.311 34.933)" fill="#d90017"/>
      <path id="Path_260" data-name="Path 260" d="M334.7,54.845a12.394,12.394,0,0,1-2.418.253c-.307,0-.6-.015-.87-.041a6.071,6.071,0,0,1-.909-.173,2.949,2.949,0,0,1-.851-.357,1.85,1.85,0,0,1-.835-1.594V49.652q0-2.257,3.465-2.257a15.418,15.418,0,0,1,2.372.253V49a10.539,10.539,0,0,0-2.349-.323c-.261,0-.475.008-.639.023a2.257,2.257,0,0,0-.518.115.754.754,0,0,0-.4.293.939.939,0,0,0-.132.525v3.177q0,1.015,1.853,1.013a10.419,10.419,0,0,0,2.234-.334Z" transform="translate(-87.258 -12.578)" fill="#d90017"/>
      <path id="Path_261" data-name="Path 261" d="M344.2,55.024h-5.813V47.552h5.7v1.278h-3.9v1.715h3.524v1.279h-3.524v1.923H344.2Z" transform="translate(-89.799 -12.619)" fill="#d90017"/>
      <path id="Path_262" data-name="Path 262" d="M353.547,52.358v.5a2.372,2.372,0,0,1-.242,1.123,1.591,1.591,0,0,1-.714.69,3.739,3.739,0,0,1-1.03.334,7.734,7.734,0,0,1-1.33.1,20.954,20.954,0,0,1-2.648-.208V53.521a20.245,20.245,0,0,0,2.67.3q1.5,0,1.5-.771v-.482a.781.781,0,0,0-.2-.548,1.068,1.068,0,0,0-.782-.213H349.9q-2.464,0-2.463-1.957V49.3a1.542,1.542,0,0,1,.812-1.434,5.442,5.442,0,0,1,2.6-.466q.864,0,2.337.151V48.88q-1.751-.206-2.395-.207a3.4,3.4,0,0,0-1.22.149.518.518,0,0,0-.334.508v.53q0,.587.992.588h.9a2.859,2.859,0,0,1,1.871.483,1.785,1.785,0,0,1,.558,1.428" transform="translate(-92.199 -12.578)" fill="#d90017"/>
      <path id="Path_263" data-name="Path 263" d="M107.828,25.886v3.051a3.513,3.513,0,0,1-1.984,3.448,13.806,13.806,0,0,1-5.89.977h-8.24V13.557h8.026q4.213,0,5.707.946a3.592,3.592,0,0,1,1.5,3.3v2.442a2.307,2.307,0,0,1-.671,1.586,3.279,3.279,0,0,1-1.526.977v.152a3.846,3.846,0,0,1,2.091.977,2.529,2.529,0,0,1,.992,1.953m-5.463-6.256v-.976a1.643,1.643,0,0,0-.458-1.343,4.268,4.268,0,0,0-2.258-.367H96.475v4.669h3.265a3.535,3.535,0,0,0,2.151-.428,2.043,2.043,0,0,0,.474-1.556m.7,8.666V26.71a1.9,1.9,0,0,0-.564-1.557,3.266,3.266,0,0,0-2-.458H96.475v5.28h3.388a5.561,5.561,0,0,0,2.471-.4,1.349,1.349,0,0,0,.732-1.282" transform="translate(-24.339 -3.598)" fill="#fff"/>
      <path id="Path_264" data-name="Path 264" d="M133.1,32.886a32.716,32.716,0,0,1-6.408.671q-1.22,0-2.3-.107a15.421,15.421,0,0,1-2.411-.458,7.945,7.945,0,0,1-2.258-.945,4.923,4.923,0,0,1-2.213-4.227v-8.7q0-5.98,9.186-5.981a40.88,40.88,0,0,1,6.286.671v3.57a27.857,27.857,0,0,0-6.225-.854q-1.038,0-1.693.06a5.992,5.992,0,0,0-1.374.306,2,2,0,0,0-1.068.778,2.491,2.491,0,0,0-.35,1.388v8.423q0,2.685,4.912,2.686a27.448,27.448,0,0,0,5.92-.885Z" transform="translate(-31.184 -3.487)" fill="#fff"/>
      <path id="Path_265" data-name="Path 265" d="M166.941,33.362h-14.5v-19.8h4.761V29.975h9.735Z" transform="translate(-40.455 -3.598)" fill="#fff"/>
      <path id="Path_266" data-name="Path 266" d="M194.756,19.153V27.82a4.677,4.677,0,0,1-.884,2.869,5.368,5.368,0,0,1-2.381,1.785,14.346,14.346,0,0,1-2.99.84,19.752,19.752,0,0,1-3.174.244,21.066,21.066,0,0,1-2.975-.2,15.743,15.743,0,0,1-2.961-.748,5.227,5.227,0,0,1-2.5-1.77,4.833,4.833,0,0,1-.93-3.021V19.153a5.249,5.249,0,0,1,2.334-4.456,8.675,8.675,0,0,1,2.335-.992,13.612,13.612,0,0,1,2.441-.473q1.068-.091,2.258-.092,1.22,0,2.3.092a13.6,13.6,0,0,1,2.457.473,8.917,8.917,0,0,1,2.349.992,5,5,0,0,1,1.648,1.754,5.245,5.245,0,0,1,.671,2.7M190,27.82v-8.7a2.06,2.06,0,0,0-1.175-2.014,8.09,8.09,0,0,0-3.463-.58,8.271,8.271,0,0,0-3.479.564,2.058,2.058,0,0,0-1.159,2.029v8.7a1.987,1.987,0,0,0,.4,1.266,2.154,2.154,0,0,0,1.145.717,8.725,8.725,0,0,0,1.434.29,18.819,18.819,0,0,0,3.388,0,8.373,8.373,0,0,0,1.419-.29,2.072,2.072,0,0,0,1.114-.717A2.042,2.042,0,0,0,190,27.82" transform="translate(-46.694 -3.487)" fill="#fff"/>
      <path id="Path_267" data-name="Path 267" d="M224.3,32.275a21.373,21.373,0,0,1-3.891.915,28.517,28.517,0,0,1-4.348.367,29.07,29.07,0,0,1-2.976-.137,15.329,15.329,0,0,1-2.654-.519,7.77,7.77,0,0,1-2.228-.992,4.483,4.483,0,0,1-1.449-1.649,5.146,5.146,0,0,1-.549-2.441V19.581a5.7,5.7,0,0,1,.641-2.747,5.191,5.191,0,0,1,1.617-1.862,9.018,9.018,0,0,1,2.35-1.114,13.278,13.278,0,0,1,2.64-.58,24.719,24.719,0,0,1,2.67-.137,48.926,48.926,0,0,1,8.056.641v3.6a35.23,35.23,0,0,0-8.056-.854q-5.157,0-5.158,2.99v7.965a2.105,2.105,0,0,0,1.449,2.106,11.574,11.574,0,0,0,4.136.58,12.444,12.444,0,0,0,3.2-.458V25.1h-3.235V21.991H224.3Z" transform="translate(-54.719 -3.488)" fill="#fff"/>
      <rect id="Rectangle_93" data-name="Rectangle 93" width="4.76" height="19.805" transform="translate(173.421 9.959)" fill="#fff"/>
      <path id="Path_268" data-name="Path 268" d="M263.195,26.294v1.312a6.271,6.271,0,0,1-.641,2.975,4.224,4.224,0,0,1-1.892,1.831,9.878,9.878,0,0,1-2.731.885,20.834,20.834,0,0,1-3.525.259,55.532,55.532,0,0,1-7.018-.55V29.376a53.9,53.9,0,0,0,7.08.793q3.967,0,3.967-2.044V26.843a2.06,2.06,0,0,0-.519-1.449,2.833,2.833,0,0,0-2.076-.565h-2.318q-6.531,0-6.53-5.187V18.176a4.088,4.088,0,0,1,2.151-3.8q2.151-1.236,6.881-1.236,2.289,0,6.2.4v3.539q-4.639-.549-6.348-.549a8.953,8.953,0,0,0-3.235.4,1.373,1.373,0,0,0-.885,1.343v1.4q0,1.556,2.624,1.557h2.381q3.478,0,4.958,1.281a4.735,4.735,0,0,1,1.48,3.784" transform="translate(-65.544 -3.487)" fill="#fff"/>
      <path id="Path_269" data-name="Path 269" d="M288.392,16.944H282.32V33.362h-4.761V16.944h-6.1V13.557h16.936Z" transform="translate(-72.037 -3.598)" fill="#fff"/>
      <rect id="Rectangle_94" data-name="Rectangle 94" width="4.76" height="19.805" transform="translate(219.102 9.959)" fill="#fff"/>
      <path id="Path_270" data-name="Path 270" d="M325.556,32.886a32.71,32.71,0,0,1-6.408.671q-1.221,0-2.3-.107a15.429,15.429,0,0,1-2.41-.458,7.963,7.963,0,0,1-2.258-.945,4.92,4.92,0,0,1-2.212-4.227v-8.7q0-5.98,9.185-5.981a40.88,40.88,0,0,1,6.286.671v3.57a27.862,27.862,0,0,0-6.225-.854q-1.038,0-1.694.06a5.981,5.981,0,0,0-1.372.306,2,2,0,0,0-1.069.778,2.485,2.485,0,0,0-.35,1.388v8.423q0,2.685,4.913,2.686a27.442,27.442,0,0,0,5.92-.885Z" transform="translate(-82.255 -3.487)" fill="#fff"/>
      <path id="Path_271" data-name="Path 271" d="M350.177,26.294v1.312a6.271,6.271,0,0,1-.641,2.975,4.224,4.224,0,0,1-1.892,1.831,9.878,9.878,0,0,1-2.731.885,20.834,20.834,0,0,1-3.525.259,55.553,55.553,0,0,1-7.019-.55V29.376a53.917,53.917,0,0,0,7.08.793q3.967,0,3.967-2.044V26.843a2.06,2.06,0,0,0-.519-1.449,2.833,2.833,0,0,0-2.076-.565H340.5q-6.531,0-6.53-5.187V18.176a4.088,4.088,0,0,1,2.151-3.8q2.151-1.236,6.881-1.236,2.289,0,6.2.4v3.539q-4.639-.549-6.348-.549a8.95,8.95,0,0,0-3.235.4,1.373,1.373,0,0,0-.885,1.343v1.4q0,1.556,2.625,1.557h2.381q3.478,0,4.958,1.281a4.735,4.735,0,0,1,1.48,3.784" transform="translate(-88.627 -3.487)" fill="#fff"/>
    </g>
  </g>
  <g id="Group_170" data-name="Group 170" transform="translate(4.091)">
    <g id="Group_169" data-name="Group 169" clip-path="url(#clip-path-2)">
      <rect id="Rectangle_96" data-name="Rectangle 96" width="72.94" height="72.94" transform="matrix(0.588, -0.809, 0.809, 0.588, -24.832, 34.178)" fill="url(#radial-gradient)"/>
    </g>
  </g>
  <g id="Group_172" data-name="Group 172" transform="translate(1.649 39.422)">
    <g id="Group_171" data-name="Group 171" clip-path="url(#clip-path-3)">
      <rect id="Rectangle_97" data-name="Rectangle 97" width="23.872" height="13.577" transform="translate(-0.249 0)" fill="url(#linear-gradient)"/>
    </g>
  </g>
  <g id="Group_174" data-name="Group 174" transform="translate(0 0)">
    <g id="Group_173" data-name="Group 173" clip-path="url(#clip-path)">
      <path id="Path_274" data-name="Path 274" d="M47.642,17.093,20.556,16.1l2.915,3.728S12.221,22.708,5.6,29.265c-.015.371-.029.743-.029,1.118a26.025,26.025,0,0,0,1.857,9.669c10.718-9.455,20.19-10.878,20.19-10.878l-.13,5.334Z" transform="translate(-1.478 -4.273)" fill="#00254a"/>
    </g>
  </g>
  <g id="Group_176" data-name="Group 176" transform="translate(0 8.774)">
    <g id="Group_175" data-name="Group 175" clip-path="url(#clip-path-5)">
      <rect id="Rectangle_99" data-name="Rectangle 99" width="48.829" height="36.593" transform="translate(-0.832 0)" fill="url(#linear-gradient-2)"/>
    </g>
  </g>
</svg>
